<svg xmlns="http://www.w3.org/2000/svg" width="696.784" height="690.404" viewBox="0 0 696.784 690.404">
  <g id="scissor" transform="translate(-49.317 -3331.855)">
    <g id="side2" transform="matrix(-0.407, 0.914, -0.914, -0.407, 786.306, 3645.204)">
      <path id="Subtraction_7" data-name="Subtraction 7" d="M73.074,544.009h0c-.039-.04-3.972-4.164-9.984-9.24-3.548-2.995-7.125-5.742-10.633-8.164A95.49,95.49,0,0,0,39.7,519.087a88.285,88.285,0,0,0-13.74-5.14,124.687,124.687,0,0,0-12.811-2.937A121.317,121.317,0,0,0,0,509.372L184.188.809A23.279,23.279,0,0,1,190.8,0a39.089,39.089,0,0,1,12.837,2.3,58.289,58.289,0,0,1,17.43,10.056,105.71,105.71,0,0,1,20.068,22.561c7.417,10.872,14.4,24.266,20.751,39.812a123.09,123.09,0,0,1,6.265,36.427,182.383,182.383,0,0,1-2.28,33.6,217.522,217.522,0,0,1-5.368,24.652c-1.673,5.957-2.989,9.543-3,9.578ZM93.283,372.646a19.147,19.147,0,1,0,17.5,11.362A19.009,19.009,0,0,0,93.283,372.646Z" transform="translate(98.849 0)" fill="#525a68"/>
      <path id="Subtraction_5" data-name="Subtraction 5" d="M100.222,0h-.006A80.176,80.176,0,0,0,74.382,4.407,96.664,96.664,0,0,0,49.8,17.065C33.636,28.484,20.381,44.617,11.474,63.718A121.451,121.451,0,0,0,.625,102.4,105.312,105.312,0,0,0,3.052,139.26,84.029,84.029,0,0,0,17.72,170.185a69.022,69.022,0,0,0,55.344,27.356A80.193,80.193,0,0,0,98.9,193.132a96.675,96.675,0,0,0,24.578-12.658c16.169-11.419,29.424-27.551,38.331-46.652A121.454,121.454,0,0,0,172.66,95.135a105.316,105.316,0,0,0-2.427-36.855,84.03,84.03,0,0,0-14.668-30.925A69.024,69.024,0,0,0,100.222,0ZM73.208,172.684h0a46.541,46.541,0,0,1-19.817-4.325c-14.266-6.652-24.288-20.177-28.22-38.082s-1.3-38.048,7.4-56.717c13.753-29.494,40.35-49.312,66.184-49.314a46.534,46.534,0,0,1,19.818,4.324c14.267,6.652,24.289,20.177,28.221,38.082s1.3,38.048-7.4,56.717c-13.754,29.5-40.351,49.314-66.184,49.314Z" transform="translate(173.285 729.584) rotate(180)" fill="#414c63"/>
    </g>
    <g id="side1" transform="translate(584.433 3331.855) rotate(59)">
      <path id="Subtraction_6" data-name="Subtraction 6" d="M195.147,544.009,10.72,178.987c-.013-.035-1.321-3.593-3-9.579A217.539,217.539,0,0,1,2.35,144.755a182.386,182.386,0,0,1-2.28-33.6A123.091,123.091,0,0,1,6.335,74.726c6.352-15.544,13.333-28.938,20.75-39.809A105.719,105.719,0,0,1,47.153,12.355,58.3,58.3,0,0,1,64.585,2.3,39.084,39.084,0,0,1,77.423,0a23.183,23.183,0,0,1,6.61.809L268.221,509.373a122.222,122.222,0,0,0-13.154,1.638,124.73,124.73,0,0,0-12.811,2.937,88.287,88.287,0,0,0-13.74,5.139,95.491,95.491,0,0,0-12.75,7.515c-3.509,2.423-7.086,5.17-10.633,8.164-6.012,5.075-9.945,9.2-9.984,9.241h0Zm-33.3-192.69a19.134,19.134,0,0,0-16.428,9.287,19.148,19.148,0,0,0,16.387,29.007h0a19.147,19.147,0,0,0,.036-38.294Z" transform="translate(0 0)" fill="#414c63"/>
      <path id="Subtraction_2" data-name="Subtraction 2" d="M100.222,197.541h-.006a80.176,80.176,0,0,1-25.833-4.408A96.663,96.663,0,0,1,49.8,180.476c-16.169-11.419-29.423-27.551-38.33-46.653A121.451,121.451,0,0,1,.625,95.136,105.312,105.312,0,0,1,3.052,58.281,84.028,84.028,0,0,1,17.72,27.356,69.022,69.022,0,0,1,73.064,0,80.192,80.192,0,0,1,98.9,4.409a96.675,96.675,0,0,1,24.578,12.658c16.169,11.419,29.424,27.551,38.331,46.652a121.454,121.454,0,0,1,10.848,38.687,105.316,105.316,0,0,1-2.427,36.855,84.029,84.029,0,0,1-14.668,30.925,69.024,69.024,0,0,1-55.344,27.356ZM73.208,24.857h0a46.541,46.541,0,0,0-19.817,4.325C39.125,35.836,29.1,49.361,25.171,67.266s-1.3,38.048,7.4,56.717c13.753,29.494,40.35,49.312,66.184,49.314a46.534,46.534,0,0,0,19.818-4.324c14.267-6.652,24.289-20.177,28.221-38.082s1.3-38.048-7.4-56.717C125.64,44.677,99.042,24.859,73.21,24.859Z" transform="translate(193.784 532.043)" fill="#414c63"/>
    </g>
  </g>
</svg>
