<svg xmlns="http://www.w3.org/2000/svg" width="111.103" height="111.07" viewBox="0 0 111.103 111.07"><defs><style>.a{fill:#414c63;}</style></defs><g transform="translate(-200.594 -796.371)"><path class="a" d="M94.635,111.07H85.677l-.011,0a3.593,3.593,0,0,1-1.582-.819,3.922,3.922,0,0,1-.859-1.617l0-.013v-11.5H18.451l-.022-.011A11.926,11.926,0,0,1,15.709,95.2a7.5,7.5,0,0,1-1.278-1.8,7.86,7.86,0,0,1-.421-.941L14,92.44v-.018L13.849,27.88H2.854A3.8,3.8,0,0,1,.937,27.1,3.722,3.722,0,0,1,0,25.268l0-.01v-9l.007-.019A4.444,4.444,0,0,1,1.12,14.624a3.791,3.791,0,0,1,1.731-.708h11V2.52l0-.013a3.805,3.805,0,0,1,.877-1.62A4.111,4.111,0,0,1,16.388,0L16.4,0h8.828l.013,0a4.07,4.07,0,0,1,1.62.883A4.178,4.178,0,0,1,27.776,2.5l0,.014v11.4l59.54-.034.089-.09C91.351,9.813,100.529.551,100.626.472l.009-.008.011-.005A4.367,4.367,0,0,1,102.4.012a4.5,4.5,0,0,1,1.76.445,13.494,13.494,0,0,1,1.091,1.087c.56.573,1.312,1.346,2.235,2.3,1.617,1.668,3.207,3.315,3.221,3.329l.017.018.008.023a5.184,5.184,0,0,1,.258,1.465,4.111,4.111,0,0,1-.261,1.359l-.008.02-.015.016L97.221,23.632l-.133,59.591h11.666l.017.006a4.013,4.013,0,0,1,1.475.941,4.491,4.491,0,0,1,.852,1.59l0,.014v8.363l0,.012a5.631,5.631,0,0,1-.848,1.912,3.515,3.515,0,0,1-1.48,1.055l-.017.006H97.089v11.5l-.006.018a4.965,4.965,0,0,1-.965,1.606,3.474,3.474,0,0,1-1.469.819ZM83.445,37.361,37.761,82.885H83.445V37.361Zm-55.651-9.75V73.135L73.478,27.611H27.794Z" transform="translate(200.594 796.371)"/></g></svg>