<svg xmlns="http://www.w3.org/2000/svg" width="95.234" height="108.838" viewBox="0 0 95.234 108.838"><defs><style>.a{fill:#414c63;}</style></defs><g transform="translate(-786.564 -1226.033)"><path class="a" d="M207.564,1894.087s12.555-6.741,13.2-28.637-13.2-29.207-13.2-29.207l10.275-15.6a14.032,14.032,0,0,0,13.224.381c7.546-3.455,7.326-11.988,7.326-11.988h33.774s-1.172,7.345,6.755,11.8,13.51,0,13.51,0l10.37,15.317s-13.172,8.052-13.51,29.3,13.51,28.732,13.51,28.732l-13.6,20.93a16.432,16.432,0,0,0-12.844-3.805,15.892,15.892,0,0,0-11.512,6.564h-19.6s-2.941-5.681-11.226-6.66-12.939,3.806-12.939,3.806Z" transform="translate(579 -583)"/></g></svg>