<svg xmlns="http://www.w3.org/2000/svg" width="62.973" height="114.228" viewBox="0 0 62.973 114.228"><defs><style>.a{fill:#414c63;}</style></defs><g transform="translate(-365.186 -1208.371)"><path class="a" d="M623.138,1848.966c-.7-18.522,2.358-40.356-17.112-65.221-6.451-9.149.586-14.193,1.408-17.946.012-1.773.012-18.152,0-23.576a2.033,2.033,0,0,0-3.988,0c-.136,4.076,0,15.248,0,15.248s-3.242-1.509-5.822-.893-4.5,3.356-4.5,3.356a2.741,2.741,0,0,1-1.5.58,2.308,2.308,0,0,1-1.409-.58s-2.012-2.74-4.593-3.356-5.739.893-5.739.893v-15.248c0-1.3-3.08-2.777-4.116,0-.032,4.122,0,15.248,0,15.248s.172,1.974,0,8.328c.588,3.363,7.945,8.29,1.173,17.946-20.156,26.913-15.555,50.732-16.773,66.5,6.361,7.235,28.826,4.257,31.552,1.642C597.111,1844.131,620.771,1847.24,623.138,1848.966Z" transform="translate(-194.978 -532.217)"/><path class="a" d="M734.216,2191.332s-3.149-1.869-13.454-1.869-12.279,1.869-12.279,1.869.586,1.922,12.279,1.922S734.216,2191.332,734.216,2191.332Z" transform="translate(-306.806 -870.655)"/></g></svg>