<svg xmlns="http://www.w3.org/2000/svg" width="121.706" height="117.907" viewBox="0 0 121.706 117.907"><defs><style>.a{fill:#414c63;}</style></defs><g transform="translate(-911.985 -1208.623)"><path class="a" d="M588.227,1922.151c-.228-1.062,1.872-43.491,8.35-75.174a120.61,120.61,0,0,1,14.37-40.155l23.516,24.451-18.438,18.572a2.012,2.012,0,0,0-.433,1.1,2.44,2.44,0,0,0,.433,1.176l16.408,14.837s-22.415,19-32.455,34.179S588.227,1922.151,588.227,1922.151Z" transform="translate(399.229 -595.621)"/><path class="a" d="M634.445,1922.151c.228-1.062-1.872-43.491-8.35-75.174a120.61,120.61,0,0,0-14.37-40.155l-23.516,24.451,18.438,18.572a2.012,2.012,0,0,1,.433,1.1,2.44,2.44,0,0,1-.433,1.176l-16.408,14.837s22.415,19,32.455,34.179S634.445,1922.151,634.445,1922.151Z" transform="translate(323.775 -595.621)"/><path class="a" d="M543.985,1857.949l1.731-.655a50.038,50.038,0,0,0,3.7,5.894c2.362,3.275,5.754,7.2,5.754,7.2s-4.4-1.263-6.269-.889c-1.45.655-2.713,5.1-2.713,5.1a80.893,80.893,0,0,1-1.637-8.374A73.78,73.78,0,0,1,543.985,1857.949Z" transform="translate(431.06 -631.947)"/><path class="a" d="M555.166,1857.949l-1.731-.655a50.038,50.038,0,0,1-3.7,5.894c-2.362,3.275-5.754,7.2-5.754,7.2s4.4-1.263,6.269-.889c1.45.655,2.713,5.1,2.713,5.1a80.893,80.893,0,0,0,1.637-8.374A73.78,73.78,0,0,0,555.166,1857.949Z" transform="translate(415.466 -631.947)"/><path class="a" d="M562.069,1810a11.51,11.51,0,0,0,.491-3.977,9.717,9.717,0,0,0-1.216-3.6s7.181-3.988,10.76-4.678,3.555,1.918,3.555,1.918a19.752,19.752,0,0,0-1.263,6.362,20.208,20.208,0,0,0,1.263,6.409s-.158,2.713-3.555,2.105S562.069,1810,562.069,1810Z" transform="translate(418.565 -589)"/><path class="a" d="M574.934,1810a11.51,11.51,0,0,1-.491-3.977,9.717,9.717,0,0,1,1.216-3.6s-7.181-3.988-10.76-4.678-3.555,1.918-3.555,1.918a19.752,19.752,0,0,1,1.263,6.362,20.209,20.209,0,0,1-1.263,6.409s.158,2.713,3.555,2.105S574.934,1810,574.934,1810Z" transform="translate(390.107 -589)"/><circle class="a" cx="4.204" cy="4.204" r="4.204" transform="translate(968.603 1213.773)"/></g></svg>